# xmcd
#
# Track frame offsets: 
#        150
#        14233
#        25904
#        48234
#        62701
#        80647
#        95119
#        115007
#        140102
#
# Disc length: 2095 seconds
#
# Revision: 0
# Processed by: cddbd v1.5.2PL0 Copyright (c) Steve Scherf et al.
# Submitted via: ExactAudioCopy v0.99pb5
#
DISCID=7f082d09
DTITLE=Doug Paisley - Doug Paisley
DYEAR=2008
DGENRE=Country
TTITLE0=What About Us?
TTITLE1=Broken In Two
TTITLE2=Digging In The Ground
TTITLE3=A Day Is Very Long
TTITLE4=Last Duet
TTITLE5=We Weather
TTITLE6=Take My Hand
TTITLE7=Wide Open Plain
TTITLE8=Take Me With You
EXTD=
EXTT0=
EXTT1=
EXTT2=
EXTT3=
EXTT4=
EXTT5=
EXTT6=
EXTT7=
EXTT8=
PLAYORDER=
